<?xml version="1.0" ?>
<svg xmlns="http://www.w3.org/2000/svg" width="512" height="512" viewBox="0 0 512 512">
  <g fill="none" stroke="#000" stroke-width="28" stroke-linecap="round" stroke-linejoin="round">
    <path d="M 61.44 256.0 C 110.08 133.12, 207.36 133.12, 256.0 133.12 C 304.64 133.12, 401.92 133.12, 450.56 256.0 C 401.92 378.88, 304.64 378.88, 256.0 378.88 C 207.36 378.88, 110.08 378.88, 61.44 256.0 Z"/>
  </g>
  <g fill="none" stroke="#000" stroke-width="9.799999999999999" stroke-linecap="round">
    <line x1="187.904" y1="256.0" x2="246.272" y2="200.704"/>
    <line x1="246.272" y1="200.704" x2="324.096" y2="249.856"/>
    <line x1="324.096" y1="249.856" x2="275.456" y2="305.152"/>
    <line x1="275.456" y1="305.152" x2="207.36" y2="286.72"/>
    <line x1="207.36" y1="286.72" x2="187.904" y2="256.0"/>
    <line x1="246.272" y1="200.704" x2="275.456" y2="305.152"/>
  </g>
  <g fill="#000">
    <circle cx="187.904" cy="256.0" r="16.8"/>
    <circle cx="246.272" cy="200.704" r="16.8"/>
    <circle cx="324.096" cy="249.856" r="16.8"/>
    <circle cx="275.456" cy="305.152" r="16.8"/>
    <circle cx="207.36" cy="286.72" r="16.8"/>
  </g>
  <circle cx="256.0" cy="256.0" r="14.0" fill="#000"/>
</svg>
